<svg width="1883" height="497" viewBox="0 0 1883 497" fill="none" xmlns="http://www.w3.org/2000/svg">
<g clip-path="url(#clip0_308_419)">
<rect width="497" height="497" rx="248.5" fill="#110B31"/>
<g filter="url(#filter0_f_308_419)">
<ellipse cx="316.494" cy="266.942" rx="184.259" ry="172.488" fill="#331D8A"/>
</g>
<g filter="url(#filter1_f_308_419)">
<path d="M288.013 85.8811C308.944 200.725 218.46 267.78 189.49 205.765C152.229 59.4277 -17.2722 -49.1439 62.9211 -86.6069C143.114 -124.07 349.616 -225.535 378.587 -163.521C407.558 -101.506 342.939 15.3128 288.013 85.8811Z" fill="#826BFF"/>
</g>
<g filter="url(#filter2_f_308_419)">
<path d="M274.934 112.183C226.757 62.9857 161.837 -28.9665 215.717 -81.7292C269.596 -134.492 482.967 -99.538 482.298 -45.4832C530.475 3.7139 384.469 -44.1891 330.59 8.5737C276.71 61.3365 323.112 161.38 274.934 112.183Z" fill="#CFBBF6"/>
</g>
<path d="M336.546 26.3291C336.546 181.699 336.546 259.188 336.546 376.627H288.187V359.406C277.341 372.133 259.702 380.238 242.852 380.238C199.523 380.238 163.015 345.735 163.015 290.37C163.015 234.203 198.32 196.491 252.882 196.491C265.319 196.491 278.558 198.899 288.187 202.911V28.3349L336.546 26.3291Z" fill="url(#paint0_linear_308_419)"/>
<path fill-rule="evenodd" clip-rule="evenodd" d="M248.5 455.084C362.593 455.084 455.084 362.593 455.084 248.5C455.084 134.407 362.593 41.9157 248.5 41.9157C134.407 41.9157 41.9156 134.407 41.9156 248.5C41.9156 362.593 134.407 455.084 248.5 455.084ZM248.5 497C385.743 497 497 385.743 497 248.5C497 111.257 385.743 0 248.5 0C111.257 0 0 111.257 0 248.5C0 385.743 111.257 497 248.5 497Z" fill="url(#paint1_linear_308_419)"/>
</g>
<rect x="0.242768" y="0.242768" width="496.514" height="496.514" rx="248.257" stroke="white" stroke-opacity="0.5" stroke-width="0.485537"/>
<path d="M763.348 92V331.736H714.956V321.148C702.858 330.602 688.113 335.139 672.234 335.139C631.404 335.139 597 302.62 597 250.438C597 197.499 630.269 161.954 681.686 161.954C693.406 161.954 705.882 164.223 714.956 168.005V93.8906L763.348 92ZM714.956 208.465C708.907 205.818 698.321 203.549 689.247 203.549C663.161 203.549 646.904 220.943 646.904 248.925C646.904 276.151 661.271 293.545 685.467 293.545C696.43 293.545 706.26 290.898 714.956 284.848V208.465Z" fill="white"/>
<path d="M802.217 331.736V107.125H852.5V286.36H946.259L942.478 331.736H802.217Z" fill="white"/>
<path d="M1139.14 248.547C1139.14 298.838 1101.34 335.139 1049.17 335.139C997.371 335.139 959.187 298.838 959.187 248.547C959.187 198.255 997.371 161.954 1049.17 161.954C1101.34 161.954 1139.14 198.255 1139.14 248.547ZM1089.24 248.547C1089.24 221.699 1071.85 204.305 1049.17 204.305C1026.48 204.305 1009.09 221.699 1009.09 248.547C1009.09 275.394 1026.48 292.788 1049.17 292.788C1072.23 292.788 1089.24 275.394 1089.24 248.547Z" fill="white"/>
<path d="M1319.7 159.686L1319.32 197.121H1294.37C1299.28 203.549 1302.31 212.246 1302.31 221.321C1302.31 255.731 1276.6 278.419 1234.64 280.31L1217.24 297.326C1225.94 295.813 1242.2 295.057 1249.38 295.057C1296.64 295.057 1321.97 313.207 1321.97 347.239C1321.97 380.893 1296.26 405.094 1235.01 405.094C1199.85 405.094 1167.34 398.287 1148.81 386.943L1152.6 345.349C1168.1 356.693 1204.77 365.768 1237.66 365.768C1269.42 365.768 1277.36 359.34 1277.36 347.996C1277.36 336.274 1268.28 331.736 1237.28 331.736C1218.38 331.736 1195.32 333.627 1180.19 337.03V303.376L1207.41 278.041C1174.52 272.369 1156.38 249.681 1156.38 221.321C1156.38 185.399 1184.35 161.954 1229.34 161.954C1239.93 161.954 1249.76 163.467 1258.07 166.114L1319.7 159.686ZM1258.07 221.321C1258.07 205.44 1247.49 194.474 1229.34 194.474C1211.2 194.474 1200.23 205.44 1200.23 221.321C1200.23 236.825 1211.2 247.791 1229.34 247.791C1247.11 247.791 1258.07 236.825 1258.07 221.321Z" fill="white"/>
<path d="M1513.15 248.547C1513.15 298.838 1475.34 335.139 1423.17 335.139C1371.37 335.139 1333.19 298.838 1333.19 248.547C1333.19 198.255 1371.37 161.954 1423.17 161.954C1475.34 161.954 1513.15 198.255 1513.15 248.547ZM1463.24 248.547C1463.24 221.699 1445.85 204.305 1423.17 204.305C1400.48 204.305 1383.09 221.699 1383.09 248.547C1383.09 275.394 1400.48 292.788 1423.17 292.788C1446.23 292.788 1463.24 275.394 1463.24 248.547Z" fill="white"/>
<path d="M1653.63 170.273L1646.44 209.599C1635.86 204.305 1619.22 200.902 1603.72 200.902C1589.73 200.902 1582.93 205.44 1582.93 213.381C1582.93 232.287 1660.81 225.481 1660.81 281.066C1660.81 310.182 1640.39 335.139 1590.49 335.139C1567.81 335.139 1544.37 329.845 1531.89 321.526L1534.54 280.688C1547.01 289.007 1569.32 296.192 1589.73 296.192C1604.86 296.192 1611.28 291.654 1611.28 283.335C1611.28 264.05 1533.4 270.857 1533.4 214.893C1533.4 185.399 1559.87 161.954 1604.1 161.954C1623.76 161.954 1642.28 164.98 1653.63 170.273Z" fill="white"/>
<path d="M1703.7 328.5C1701.17 328.5 1699.13 327.767 1697.6 326.3C1696.07 324.767 1695.3 322.9 1695.3 320.7C1695.3 318.5 1696.07 316.667 1697.6 315.2C1699.13 313.667 1701.17 312.9 1703.7 312.9C1706.1 312.9 1708.07 313.667 1709.6 315.2C1711.13 316.667 1711.9 318.5 1711.9 320.7C1711.9 322.9 1711.13 324.767 1709.6 326.3C1708.07 327.767 1706.1 328.5 1703.7 328.5ZM1718.1 328L1736.2 302.8L1718.1 277.6H1732.7L1744.8 294.9L1756.9 277.6H1771.4L1753.3 302.8L1771.4 328H1756.9L1744.8 310.6L1732.7 328H1718.1ZM1786.32 350L1798.52 322.4H1795.52L1775.32 277.6H1790.02L1804.42 310.1L1817.42 277.6H1831.72L1800.62 350H1786.32ZM1836.98 328V317.2L1862.38 288.8H1837.28V277.6H1877.88V288.5L1852.28 316.8H1878.38V328H1836.98Z" fill="#D9D9D9"/>
<g clip-path="url(#clip1_308_419)">
<rect width="497" height="497" rx="248.5" fill="#110B31"/>
<g filter="url(#filter3_f_308_419)">
<ellipse cx="316.494" cy="266.942" rx="184.259" ry="172.488" fill="#331D8A"/>
</g>
<g filter="url(#filter4_f_308_419)">
<path d="M288.013 85.8811C308.944 200.725 218.46 267.78 189.49 205.765C152.229 59.4277 -17.2722 -49.1439 62.9211 -86.6069C143.114 -124.07 349.616 -225.535 378.587 -163.521C407.558 -101.506 342.939 15.3128 288.013 85.8811Z" fill="#826BFF"/>
</g>
<g filter="url(#filter5_f_308_419)">
<path d="M274.934 112.183C226.757 62.9857 161.837 -28.9665 215.717 -81.7292C269.596 -134.492 482.967 -99.538 482.298 -45.4832C530.475 3.7139 384.469 -44.189 330.59 8.57371C276.71 61.3365 323.112 161.38 274.934 112.183Z" fill="#CFBBF6"/>
</g>
<path d="M336.546 26.3291C336.546 181.699 336.546 259.188 336.546 376.627H288.187V359.406C277.341 372.133 259.702 380.238 242.852 380.238C199.523 380.238 163.015 345.735 163.015 290.37C163.015 234.203 198.32 196.491 252.882 196.491C265.319 196.491 278.558 198.899 288.187 202.911V28.3349L336.546 26.3291Z" fill="url(#paint2_linear_308_419)"/>
<path fill-rule="evenodd" clip-rule="evenodd" d="M248.5 455.084C362.593 455.084 455.084 362.593 455.084 248.5C455.084 134.407 362.593 41.9157 248.5 41.9157C134.407 41.9157 41.9156 134.407 41.9156 248.5C41.9156 362.593 134.407 455.084 248.5 455.084ZM248.5 497C385.743 497 497 385.743 497 248.5C497 111.257 385.743 0 248.5 0C111.257 0 0 111.257 0 248.5C0 385.743 111.257 497 248.5 497Z" fill="url(#paint3_linear_308_419)"/>
</g>
<rect x="0.242768" y="0.242768" width="496.514" height="496.514" rx="248.257" stroke="white" stroke-opacity="0.5" stroke-width="0.485537"/>
<path d="M763.348 92V331.736H714.956V321.148C702.858 330.602 688.113 335.139 672.234 335.139C631.404 335.139 597 302.62 597 250.438C597 197.499 630.269 161.954 681.686 161.954C693.406 161.954 705.882 164.223 714.956 168.005V93.8906L763.348 92ZM714.956 208.465C708.907 205.818 698.321 203.549 689.247 203.549C663.161 203.549 646.904 220.943 646.904 248.925C646.904 276.151 661.271 293.545 685.467 293.545C696.43 293.545 706.26 290.898 714.956 284.848V208.465Z" fill="white"/>
<path d="M802.217 331.736V107.125H852.5V286.36H946.259L942.478 331.736H802.217Z" fill="white"/>
<path d="M1139.14 248.547C1139.14 298.838 1101.34 335.139 1049.17 335.139C997.371 335.139 959.187 298.838 959.187 248.547C959.187 198.255 997.371 161.954 1049.17 161.954C1101.34 161.954 1139.14 198.255 1139.14 248.547ZM1089.24 248.547C1089.24 221.699 1071.85 204.305 1049.17 204.305C1026.48 204.305 1009.09 221.699 1009.09 248.547C1009.09 275.394 1026.48 292.788 1049.17 292.788C1072.23 292.788 1089.24 275.394 1089.24 248.547Z" fill="white"/>
<path d="M1319.7 159.686L1319.32 197.121H1294.37C1299.28 203.549 1302.31 212.246 1302.31 221.321C1302.31 255.731 1276.6 278.419 1234.64 280.31L1217.24 297.326C1225.94 295.813 1242.2 295.057 1249.38 295.057C1296.64 295.057 1321.97 313.207 1321.97 347.239C1321.97 380.893 1296.26 405.094 1235.01 405.094C1199.85 405.094 1167.34 398.287 1148.81 386.943L1152.6 345.349C1168.1 356.693 1204.77 365.768 1237.66 365.768C1269.42 365.768 1277.36 359.34 1277.36 347.996C1277.36 336.274 1268.28 331.736 1237.28 331.736C1218.38 331.736 1195.32 333.627 1180.19 337.03V303.376L1207.41 278.041C1174.52 272.369 1156.38 249.681 1156.38 221.321C1156.38 185.399 1184.35 161.954 1229.34 161.954C1239.93 161.954 1249.76 163.467 1258.07 166.114L1319.7 159.686ZM1258.07 221.321C1258.07 205.44 1247.49 194.474 1229.34 194.474C1211.2 194.474 1200.23 205.44 1200.23 221.321C1200.23 236.825 1211.2 247.791 1229.34 247.791C1247.11 247.791 1258.07 236.825 1258.07 221.321Z" fill="white"/>
<path d="M1513.15 248.547C1513.15 298.838 1475.34 335.139 1423.17 335.139C1371.37 335.139 1333.19 298.838 1333.19 248.547C1333.19 198.255 1371.37 161.954 1423.17 161.954C1475.34 161.954 1513.15 198.255 1513.15 248.547ZM1463.24 248.547C1463.24 221.699 1445.85 204.305 1423.17 204.305C1400.48 204.305 1383.09 221.699 1383.09 248.547C1383.09 275.394 1400.48 292.788 1423.17 292.788C1446.23 292.788 1463.24 275.394 1463.24 248.547Z" fill="white"/>
<path d="M1653.63 170.273L1646.44 209.599C1635.86 204.305 1619.22 200.902 1603.72 200.902C1589.73 200.902 1582.93 205.44 1582.93 213.381C1582.93 232.287 1660.81 225.481 1660.81 281.066C1660.81 310.182 1640.39 335.139 1590.49 335.139C1567.81 335.139 1544.37 329.845 1531.89 321.526L1534.54 280.688C1547.01 289.007 1569.32 296.192 1589.73 296.192C1604.86 296.192 1611.28 291.654 1611.28 283.335C1611.28 264.05 1533.4 270.857 1533.4 214.893C1533.4 185.399 1559.87 161.954 1604.1 161.954C1623.76 161.954 1642.28 164.98 1653.63 170.273Z" fill="white"/>
<path d="M1703.7 328.5C1701.17 328.5 1699.13 327.767 1697.6 326.3C1696.07 324.767 1695.3 322.9 1695.3 320.7C1695.3 318.5 1696.07 316.667 1697.6 315.2C1699.13 313.667 1701.17 312.9 1703.7 312.9C1706.1 312.9 1708.07 313.667 1709.6 315.2C1711.13 316.667 1711.9 318.5 1711.9 320.7C1711.9 322.9 1711.13 324.767 1709.6 326.3C1708.07 327.767 1706.1 328.5 1703.7 328.5ZM1718.1 328L1736.2 302.8L1718.1 277.6H1732.7L1744.8 294.9L1756.9 277.6H1771.4L1753.3 302.8L1771.4 328H1756.9L1744.8 310.6L1732.7 328H1718.1ZM1786.32 350L1798.52 322.4H1795.52L1775.32 277.6H1790.02L1804.42 310.1L1817.42 277.6H1831.72L1800.62 350H1786.32ZM1836.98 328V317.2L1862.38 288.8H1837.28V277.6H1877.88V288.5L1852.28 316.8H1878.38V328H1836.98Z" fill="#C7C7C7"/>
<defs>
<filter id="filter0_f_308_419" x="-13.0785" y="-50.8602" width="659.146" height="635.605" filterUnits="userSpaceOnUse" color-interpolation-filters="sRGB">
<feFlood flood-opacity="0" result="BackgroundImageFix"/>
<feBlend mode="normal" in="SourceGraphic" in2="BackgroundImageFix" result="shape"/>
<feGaussianBlur stdDeviation="72.6572" result="effect1_foregroundBlur_308_419"/>
</filter>
<filter id="filter1_f_308_419" x="-103.685" y="-328.458" width="634.755" height="703.164" filterUnits="userSpaceOnUse" color-interpolation-filters="sRGB">
<feFlood flood-opacity="0" result="BackgroundImageFix"/>
<feBlend mode="normal" in="SourceGraphic" in2="BackgroundImageFix" result="shape"/>
<feGaussianBlur stdDeviation="72.6572" result="effect1_foregroundBlur_308_419"/>
</filter>
<filter id="filter2_f_308_419" x="50.0722" y="-253.151" width="587.144" height="523.877" filterUnits="userSpaceOnUse" color-interpolation-filters="sRGB">
<feFlood flood-opacity="0" result="BackgroundImageFix"/>
<feBlend mode="normal" in="SourceGraphic" in2="BackgroundImageFix" result="shape"/>
<feGaussianBlur stdDeviation="72.6572" result="effect1_foregroundBlur_308_419"/>
</filter>
<filter id="filter3_f_308_419" x="-13.0785" y="-50.8602" width="659.146" height="635.605" filterUnits="userSpaceOnUse" color-interpolation-filters="sRGB">
<feFlood flood-opacity="0" result="BackgroundImageFix"/>
<feBlend mode="normal" in="SourceGraphic" in2="BackgroundImageFix" result="shape"/>
<feGaussianBlur stdDeviation="72.6572" result="effect1_foregroundBlur_308_419"/>
</filter>
<filter id="filter4_f_308_419" x="-103.685" y="-328.458" width="634.755" height="703.164" filterUnits="userSpaceOnUse" color-interpolation-filters="sRGB">
<feFlood flood-opacity="0" result="BackgroundImageFix"/>
<feBlend mode="normal" in="SourceGraphic" in2="BackgroundImageFix" result="shape"/>
<feGaussianBlur stdDeviation="72.6572" result="effect1_foregroundBlur_308_419"/>
</filter>
<filter id="filter5_f_308_419" x="50.0722" y="-253.151" width="587.144" height="523.877" filterUnits="userSpaceOnUse" color-interpolation-filters="sRGB">
<feFlood flood-opacity="0" result="BackgroundImageFix"/>
<feBlend mode="normal" in="SourceGraphic" in2="BackgroundImageFix" result="shape"/>
<feGaussianBlur stdDeviation="72.6572" result="effect1_foregroundBlur_308_419"/>
</filter>
<linearGradient id="paint0_linear_308_419" x1="167.622" y1="517.5" x2="481.5" y2="-26.1532" gradientUnits="userSpaceOnUse">
<stop stop-color="#9B722C"/>
<stop offset="0.287895" stop-color="#F5B854"/>
<stop offset="0.481399" stop-color="#FFE191"/>
<stop offset="0.582059" stop-color="#FFF3D2"/>
<stop offset="0.678107" stop-color="#FFF2D0"/>
<stop offset="0.783654" stop-color="#FFDE69"/>
<stop offset="1" stop-color="#C29453"/>
</linearGradient>
<linearGradient id="paint1_linear_308_419" x1="167.622" y1="517.5" x2="481.5" y2="-26.1532" gradientUnits="userSpaceOnUse">
<stop stop-color="#9B722C"/>
<stop offset="0.287895" stop-color="#F5B854"/>
<stop offset="0.481399" stop-color="#FFE191"/>
<stop offset="0.582059" stop-color="#FFF3D2"/>
<stop offset="0.678107" stop-color="#FFF2D0"/>
<stop offset="0.783654" stop-color="#FFDE69"/>
<stop offset="1" stop-color="#C29453"/>
</linearGradient>
<linearGradient id="paint2_linear_308_419" x1="167.622" y1="517.5" x2="481.5" y2="-26.1532" gradientUnits="userSpaceOnUse">
<stop stop-color="#9B722C"/>
<stop offset="0.287895" stop-color="#F5B854"/>
<stop offset="0.481399" stop-color="#FFE191"/>
<stop offset="0.582059" stop-color="#FFF3D2"/>
<stop offset="0.678107" stop-color="#FFF2D0"/>
<stop offset="0.783654" stop-color="#FFDE69"/>
<stop offset="1" stop-color="#C29453"/>
</linearGradient>
<linearGradient id="paint3_linear_308_419" x1="167.622" y1="517.5" x2="481.5" y2="-26.1532" gradientUnits="userSpaceOnUse">
<stop stop-color="#9B722C"/>
<stop offset="0.287895" stop-color="#F5B854"/>
<stop offset="0.481399" stop-color="#FFE191"/>
<stop offset="0.582059" stop-color="#FFF3D2"/>
<stop offset="0.678107" stop-color="#FFF2D0"/>
<stop offset="0.783654" stop-color="#FFDE69"/>
<stop offset="1" stop-color="#C29453"/>
</linearGradient>
<clipPath id="clip0_308_419">
<rect width="497" height="497" rx="248.5" fill="white"/>
</clipPath>
<clipPath id="clip1_308_419">
<rect width="497" height="497" rx="248.5" fill="white"/>
</clipPath>
</defs>
</svg>
