<svg width="152" height="48" viewBox="0 0 152 48" fill="none" xmlns="http://www.w3.org/2000/svg">
<rect x="1" y="1" width="150" height="46" rx="7" stroke="url(#paint0_linear_766_4460)" stroke-width="2"/>
<path d="M37.508 17.932L33.064 31H28.774L24.33 17.932H28.246L30.512 25.28C30.688 25.896 30.842 26.622 30.952 27.194H31.062C31.172 26.622 31.326 25.896 31.502 25.28L33.768 17.932H37.508ZM44.4765 17.712C48.4805 17.712 51.4065 20.572 51.4065 24.466C51.4065 28.36 48.4805 31.22 44.4765 31.22C40.4725 31.22 37.5465 28.36 37.5465 24.466C37.5465 20.572 40.4725 17.712 44.4765 17.712ZM44.4765 27.942C46.3025 27.942 47.6005 26.512 47.6005 24.466C47.6005 22.42 46.3025 20.99 44.4765 20.99C42.6505 20.99 41.3525 22.42 41.3525 24.466C41.3525 26.512 42.6505 27.942 44.4765 27.942ZM59.2787 31H55.6267V21.232H52.1287V17.932H62.9087L62.6447 21.232H59.2787V31ZM73.2236 17.932L72.9596 21.188H67.7676V22.838H71.9916V26.006H67.7676V27.744H73.3336V31H64.1156V17.932H73.2236ZM91.161 17.932V31H88.059L84.033 25.28C83.659 24.752 83.307 24.18 82.999 23.608H82.889V31H79.391V17.932H82.933L86.519 23.058C86.893 23.586 87.245 24.158 87.553 24.73H87.663V17.932H91.161ZM99.6699 17.712C103.674 17.712 106.6 20.572 106.6 24.466C106.6 28.36 103.674 31.22 99.6699 31.22C95.6659 31.22 92.7399 28.36 92.7399 24.466C92.7399 20.572 95.6659 17.712 99.6699 17.712ZM99.6699 27.942C101.496 27.942 102.794 26.512 102.794 24.466C102.794 22.42 101.496 20.99 99.6699 20.99C97.8439 20.99 96.5459 22.42 96.5459 24.466C96.5459 26.512 97.8439 27.942 99.6699 27.942ZM126.962 17.932L123.31 31H119.13L117.26 24.796C117.084 24.18 116.974 23.652 116.908 23.08H116.798C116.732 23.652 116.622 24.18 116.446 24.796L114.576 31H110.396L106.744 17.932H110.594L112.31 25.17C112.464 25.786 112.574 26.314 112.662 26.886H112.772C112.86 26.314 112.97 25.786 113.146 25.17L114.862 19.054H119.02L120.736 25.17C120.912 25.786 121.022 26.314 121.11 26.886H121.22C121.308 26.314 121.418 25.808 121.572 25.17L123.288 17.932H126.962Z" fill="white"/>
<defs>
<linearGradient id="paint0_linear_766_4460" x1="-37.5778" y1="24" x2="184.511" y2="24" gradientUnits="userSpaceOnUse">
<stop stop-color="#947845"/>
<stop offset="0.4" stop-color="#FFCC5F"/>
<stop offset="0.7" stop-color="#E0C995"/>
<stop offset="0.9" stop-color="white"/>
</linearGradient>
</defs>
</svg>
